<svg xmlns="http://www.w3.org/2000/svg" width="273" height="181" viewBox="0 0 273 181" version="1.1">
	<path d="M 122.238 4.110 C 95.015 8.645, 69.865 28.953, 59.408 54.842 C 54.699 66.500, 53.566 72.737, 53.566 87 C 53.566 104.670, 56.769 116.737, 65.145 130.616 C 86.083 165.311, 128.579 179.771, 166.534 165.116 C 170.915 163.424, 176.944 160.428, 179.931 158.458 L 185.362 154.876 197.931 160.581 C 204.844 163.718, 212.838 167.330, 215.697 168.606 L 220.893 170.928 217.570 163.214 C 215.742 158.971, 212.197 150.899, 209.692 145.276 L 205.137 135.051 209.984 125.532 C 227.060 91.992, 219.755 50.083, 192.488 25.163 C 173.541 7.847, 147.198 -0.048, 122.238 4.110 M 96 87 L 96 144 136 144 L 176 144 176 87 L 176 30 136 30 L 96 30 96 87 M 99 52 L 99 71 112.500 71 L 126 71 126 52 L 126 33 112.500 33 L 99 33 99 52 M 129 52 L 129 71 151 71 L 173 71 173 52 L 173 33 151 33 L 129 33 129 52 M 101 52 L 101 69 112.500 69 L 124 69 124 52 L 124 35 112.500 35 L 101 35 101 52 M 131 52 L 131 69 151 69 L 171 69 171 52 L 171 35 151 35 L 131 35 131 52 M 99.416 72.917 C 99.187 73.146, 99 81.808, 99 92.167 L 99 111 136.022 111 L 173.043 111 172.772 91.966 L 172.500 72.932 136.166 72.716 C 116.183 72.597, 99.645 72.688, 99.416 72.917 M 101 92 L 101 109 136 109 L 171 109 171 92 L 171 75 136 75 L 101 75 101 92 M 99 127 L 99 141 110.500 141 L 122 141 122 127 L 122 113 110.500 113 L 99 113 99 127 M 125 127 L 125 141 136.500 141 L 148 141 148 127 L 148 113 136.500 113 L 125 113 125 127 M 150 127 L 150 141 161.500 141 L 173 141 173 127 L 173 113 161.500 113 L 150 113 150 127 M 101 127 L 101 139 110.500 139 L 120 139 120 127 L 120 115 110.500 115 L 101 115 101 127 M 127 127.038 L 127 139.075 136.250 138.788 L 145.500 138.500 145.782 126.750 L 146.063 115 136.532 115 L 127 115 127 127.038 M 152 127 L 152 139 161.500 139 L 171 139 171 127 L 171 115 161.500 115 L 152 115 152 127" stroke="none" fill="black" fill-rule="evenodd"/>
</svg>