<?xml version="1.0" standalone="no"?>
<!DOCTYPE svg PUBLIC "-//W3C//DTD SVG 20010904//EN"
 "http://www.w3.org/TR/2001/REC-SVG-20010904/DTD/svg10.dtd">
<svg version="1.0" xmlns="http://www.w3.org/2000/svg"
 width="557.000000pt" height="280.000000pt" viewBox="0 0 557.000000 280.000000"
 preserveAspectRatio="xMidYMid meet">

<g transform="translate(0.000000,280.000000) scale(0.100000,-0.100000)"
fill="#000000" stroke="none">
<path d="M839 2482 c-60 -38 -122 -112 -162 -192 -26 -53 -32 -76 -32 -131 0
-56 5 -73 30 -115 38 -60 113 -118 174 -134 25 -7 54 -14 64 -17 14 -4 17 -16
17 -70 0 -63 -2 -68 -50 -133 -28 -38 -93 -109 -145 -158 l-94 -90 58 -26 c31
-14 97 -39 147 -55 l89 -29 -1 -103 c-2 -159 -19 -242 -67 -324 -80 -137 -129
-206 -152 -215 -30 -11 -38 -25 -22 -38 39 -33 117 -19 98 17 -7 12 -6 24 3
37 8 10 44 68 81 129 68 111 95 194 95 290 0 19 4 36 8 39 4 3 29 -38 55 -90
l48 -96 -1 -170 c-1 -93 1 -172 4 -175 10 -10 55 7 76 29 15 16 17 25 8 35 -6
7 -19 11 -29 8 -18 -6 -19 2 -19 128 l0 134 -70 146 c-38 80 -70 159 -70 176
l0 30 57 -6 c31 -4 71 -16 89 -27 33 -21 33 -22 34 -98 0 -96 12 -131 42 -126
18 2 24 12 29 41 3 20 8 39 11 42 2 3 81 9 174 15 93 5 188 13 210 16 l41 6 8
-79 c9 -106 21 -164 34 -172 5 -4 11 -45 12 -94 l2 -88 30 31 c24 25 31 41 32
73 1 23 2 117 3 210 l2 167 68 0 c132 0 182 -30 181 -108 -1 -80 20 -190 46
-241 27 -54 115 -131 149 -131 11 0 73 5 136 10 83 7 121 14 140 28 14 10 44
23 67 30 49 14 125 93 161 165 13 26 30 53 37 61 8 8 51 69 95 137 44 67 80
118 80 113 0 -5 2 -65 4 -133 3 -96 8 -127 20 -140 23 -22 50 -3 54 37 2 18
11 36 20 41 9 4 87 11 172 15 85 4 174 10 198 15 30 6 44 5 47 -3 1 -6 8 -60
14 -121 7 -76 16 -113 26 -121 11 -8 15 -32 15 -97 l0 -85 30 30 30 30 0 209
0 209 58 0 c64 0 87 -11 171 -87 l53 -49 -21 -42 c-16 -31 -21 -60 -21 -119 0
-43 -7 -123 -15 -178 -8 -55 -15 -103 -15 -107 0 -5 -11 -8 -25 -8 -29 0 -45
-27 -24 -41 8 -5 32 -8 54 -7 33 3 40 6 38 23 -1 11 4 66 12 121 8 56 15 139
15 185 0 66 4 91 19 116 l20 32 63 -24 c35 -13 71 -26 81 -29 9 -3 20 -14 23
-23 28 -81 90 -226 115 -266 l30 -49 -26 -19 c-14 -11 -25 -24 -25 -29 0 -17
40 -21 68 -6 38 20 47 43 22 56 -23 12 -111 190 -134 268 l-15 54 47 -7 c81
-11 215 -9 260 4 49 14 105 60 130 105 22 43 22 199 -2 353 -10 70 -17 153
-14 197 3 64 8 81 33 118 87 123 227 159 335 86 31 -21 34 -27 34 -78 1 -61
16 -87 75 -133 35 -27 35 -27 54 -8 19 19 20 19 60 -10 22 -16 43 -26 48 -23
17 10 8 29 -26 54 -19 14 -34 27 -34 30 0 3 11 19 24 35 18 22 28 27 38 20 63
-45 68 -48 80 -36 9 9 3 19 -28 45 -40 34 -40 34 -21 55 11 12 17 23 15 25
-65 56 -104 76 -147 76 -26 -1 -58 -7 -71 -14 -22 -12 -29 -11 -60 8 -91 56
-188 66 -272 29 -26 -12 -58 -18 -75 -16 -22 4 -39 -2 -61 -21 -70 -59 -283
-140 -398 -152 l-65 -7 0 46 0 46 53 15 c150 43 236 179 203 317 -35 150 -124
218 -246 189 -52 -13 -110 -49 -79 -50 9 0 33 7 52 15 103 43 194 -17 233
-153 34 -116 -14 -224 -124 -278 -54 -28 -173 -26 -228 3 -150 79 -183 205
-100 380 24 51 53 93 83 121 25 23 44 45 40 48 -10 11 -65 -26 -94 -63 -96
-123 -137 -282 -96 -374 36 -80 127 -147 226 -164 37 -7 37 -8 37 -54 0 -47 0
-48 -97 -134 -185 -164 -208 -171 -297 -92 l-29 26 7 93 c6 77 4 95 -8 105
-21 17 -46 7 -46 -19 0 -12 -9 -24 -23 -29 -22 -9 -36 -32 -53 -91 -4 -14 -14
-30 -23 -37 -14 -10 -14 -13 -1 -30 12 -14 14 -42 12 -130 l-3 -113 -57 0
c-95 -1 -254 -26 -299 -48 -51 -24 -50 -28 -28 103 22 126 31 362 16 407 -11
32 -16 36 -57 42 -26 3 -49 4 -53 1 -5 -2 -11 -74 -14 -160 -6 -165 -13 -191
-75 -295 l-27 -45 -6 72 c-5 55 -13 81 -36 115 -16 23 -43 72 -60 108 -59 121
-154 192 -258 193 -86 1 -197 -75 -303 -208 -72 -89 -104 -148 -122 -225 -7
-30 -16 -65 -21 -76 l-8 -22 -48 24 c-38 19 -65 23 -130 24 l-83 0 0 58 c0 31
5 137 11 235 11 160 10 180 -4 194 -13 13 -19 14 -31 3 -9 -7 -16 -21 -16 -31
0 -12 -7 -19 -21 -19 -34 0 -50 -59 -62 -236 l-11 -161 -90 -7 c-134 -10 -216
-25 -258 -46 -36 -19 -49 -18 -43 3 2 7 11 76 21 155 13 101 22 142 31 142 15
0 18 37 3 42 -6 2 -12 37 -14 78 -6 110 -14 126 -72 134 -60 8 -64 2 -64 -91
0 -40 -3 -73 -6 -73 -3 0 -48 25 -100 57 l-95 56 3 56 c3 55 3 55 41 63 75 16
154 74 187 137 41 80 34 209 -16 284 -41 63 -138 92 -222 69 -46 -14 -21 -27
46 -24 84 4 120 -16 152 -84 18 -37 24 -66 24 -124 1 -69 -2 -82 -29 -126 -43
-69 -108 -107 -191 -112 -57 -4 -72 -1 -129 27 -105 52 -163 145 -152 243 12
99 129 259 211 289 20 7 36 17 36 21 0 17 -48 7 -91 -20z m3677 -707 c-9 -14
-24 -37 -33 -51 -27 -42 -29 -183 -4 -347 27 -182 27 -241 -1 -297 -34 -66
-77 -84 -197 -82 -53 1 -118 5 -146 10 l-49 7 -15 75 c-9 51 -14 156 -15 325
l-1 250 85 7 c96 7 206 40 308 93 81 41 89 42 68 10z m-3435 -97 l88 -52 -6
-145 c-4 -89 -10 -149 -17 -154 -10 -7 -76 -3 -138 9 l-28 6 0 178 c0 98 -3
185 -6 194 -10 27 16 18 107 -36z m-141 -149 c0 -129 -3 -169 -12 -169 -20 1
-123 37 -187 65 l-58 27 91 88 c50 48 104 106 121 128 16 22 33 38 37 35 5 -2
8 -80 8 -174z m1682 145 c37 -36 72 -83 65 -90 -10 -11 -77 30 -77 48 0 32
-36 58 -81 58 -27 0 -38 4 -33 11 13 21 93 4 126 -27z m1333 -489 c-30 -47
-57 -85 -61 -85 -3 0 -33 25 -66 55 -69 64 -102 80 -184 90 l-59 6 3 107 c2
59 5 112 7 119 3 9 22 3 61 -17 31 -17 65 -30 77 -30 38 0 105 40 189 114 l83
73 3 -173 2 -173 -55 -86z m-1389 369 c23 -4 40 -20 72 -67 73 -109 87 -150
87 -257 0 -87 -3 -100 -32 -155 -29 -57 -158 -195 -181 -195 -23 0 -192 64
-255 97 -37 20 -82 52 -99 72 l-32 36 54 7 c44 5 60 12 83 39 32 35 32 43 11
272 -6 62 -4 70 21 105 47 63 51 65 150 58 50 -3 104 -8 121 -12z m164 -73
c12 -24 13 -31 2 -31 -5 0 -14 11 -20 25 -14 29 2 34 18 6z m-506 -158 c3 -21
6 -61 6 -90 0 -60 -19 -86 -59 -81 -23 3 -26 8 -29 46 -2 23 1 42 7 42 5 0 20
27 32 60 12 33 25 60 29 60 4 0 10 -17 14 -37z m582 -101 c-13 -12 -17 8 -9
44 l8 39 3 -39 c2 -21 1 -41 -2 -44z m-1161 29 c-11 -9 -265 -25 -265 -17 0 3
15 10 33 15 41 12 244 14 232 2z m1770 -51 c-44 -12 -240 -21 -229 -11 15 15
45 19 154 19 71 0 95 -2 75 -8z m621 -110 c7 -62 7 -62 -17 -55 -36 11 -79 35
-79 43 0 4 16 32 37 62 33 49 37 52 44 33 4 -12 11 -49 15 -83z m-1781 -244
c11 -8 16 -16 12 -16 -16 0 -67 31 -67 41 0 11 21 1 55 -25z"/>
<path d="M924 2431 c-86 -41 -151 -89 -131 -97 10 -3 45 12 89 39 40 25 90 50
111 57 20 6 37 16 37 21 0 17 -45 9 -106 -20z"/>
<path d="M4033 2370 c-13 -5 -58 -43 -100 -84 -66 -64 -74 -75 -55 -76 16 0
39 17 69 50 25 28 65 62 89 76 60 35 58 58 -3 34z"/>
<path d="M892 2208 c-16 -16 -15 -33 4 -48 22 -19 54 12 38 37 -14 22 -27 26
-42 11z"/>
<path d="M1042 2198 c-16 -16 -15 -33 4 -48 22 -19 54 12 38 37 -14 22 -27 26
-42 11z"/>
<path d="M910 2117 c-38 -12 -114 -82 -105 -97 10 -16 19 -11 37 19 32 57 143
90 201 60 12 -6 37 -25 55 -42 17 -17 32 -25 32 -18 0 20 -59 67 -99 80 -46
13 -74 13 -121 -2z"/>
<path d="M3875 2060 c-3 -6 -3 -19 0 -30 7 -23 43 -27 51 -5 12 29 -35 61 -51
35z"/>
<path d="M4024 2055 c-9 -23 3 -45 25 -45 23 0 35 28 20 46 -15 18 -38 18 -45
-1z"/>
<path d="M3917 1935 c-47 -16 -54 -23 -34 -31 9 -3 47 2 84 11 63 16 111 16
171 -1 34 -10 26 13 -9 25 -44 15 -166 13 -212 -4z"/>
</g>
</svg>
